<?xml version="1.0" standalone="no"?>
<!DOCTYPE svg PUBLIC "-//W3C//DTD SVG 20010904//EN"
 "http://www.w3.org/TR/2001/REC-SVG-20010904/DTD/svg10.dtd">
<svg version="1.0" xmlns="http://www.w3.org/2000/svg"
 width="598.000000pt" height="221.000000pt" viewBox="0 0 598.000000 221.000000"
 preserveAspectRatio="xMidYMid meet">

<g transform="translate(0.000000,221.000000) scale(0.100000,-0.100000)"
fill="#000000" stroke="none">
<path d="M1662 2130 c-68 -10 -126 -20 -129 -23 -3 -3 28 -22 68 -43 l74 -37
130 18 c184 25 184 25 98 69 -82 41 -75 40 -241 16z"/>
<path d="M1245 2070 c-66 -10 -121 -19 -122 -19 -2 -1 -3 -172 -3 -381 l0
-379 63 -35 c34 -19 70 -38 80 -41 16 -7 17 15 17 374 0 298 3 381 13 381 26
1 269 39 274 43 2 3 -26 21 -64 41 -77 41 -85 41 -258 16z"/>
<path d="M1894 2010 c-61 -10 -119 -20 -130 -22 -13 -3 2 -15 54 -42 l72 -38
0 -379 c0 -209 1 -379 3 -379 2 0 68 9 147 20 79 11 145 20 147 20 2 0 3 173
3 385 l0 385 -70 35 c-79 40 -75 39 -226 15z"/>
<path d="M1470 1950 c-63 -10 -116 -19 -117 -19 -2 -1 -3 -173 -3 -384 l0
-383 68 -36 67 -36 155 22 155 21 3 380 2 380 -69 38 c-79 43 -91 43 -261 17z"/>
<path d="M423 1407 c-23 -12 -43 -26 -43 -32 0 -5 48 -17 107 -26 l108 -17 57
31 c32 17 54 34 50 38 -8 7 -176 29 -213 29 -13 -1 -43 -11 -66 -23z"/>
<path d="M733 1359 c-29 -17 -53 -32 -53 -34 0 -1 52 -11 115 -20 l115 -18 0
-299 c0 -165 3 -298 8 -296 4 2 31 16 60 31 l52 27 0 304 0 303 -87 12 c-49 7
-104 14 -123 17 -27 3 -47 -3 -87 -27z"/>
<path d="M243 1309 l-53 -31 0 -302 0 -303 115 -14 c64 -8 118 -13 120 -10 3
2 5 138 5 301 l0 297 50 23 c28 13 50 26 50 30 0 4 -39 12 -87 19 -49 6 -101
14 -118 16 -21 3 -46 -5 -82 -26z"/>
<path d="M555 1262 l-50 -27 -3 -301 -2 -301 124 -17 125 -18 53 29 53 28 3
294 c1 162 -2 299 -6 303 -9 9 -178 38 -222 38 -14 0 -47 -13 -75 -28z"/>
<path d="M2052 885 c-44 -19 -67 -72 -52 -123 14 -51 13 -52 -15 -52 -20 0
-25 -5 -25 -25 0 -20 5 -25 25 -25 l24 0 3 -122 3 -123 30 0 30 0 3 122 3 122
37 3 c32 3 37 7 40 31 3 26 1 27 -41 27 -48 0 -57 9 -57 60 0 50 38 72 82 49
18 -9 24 -8 35 7 19 27 16 34 -22 50 -42 17 -61 17 -103 -1z"/>
<path d="M4511 886 c-9 -11 -12 -70 -9 -230 3 -186 5 -218 20 -232 20 -20 75
-21 95 -1 19 19 6 47 -23 47 l-24 0 -2 213 c-3 206 -4 212 -24 215 -11 2 -26
-4 -33 -12z"/>
<path d="M1802 848 c-39 -39 17 -100 58 -63 25 22 25 37 2 58 -22 20 -43 22
-60 5z"/>
<path d="M1501 826 c-83 -27 -130 -99 -131 -196 0 -80 17 -130 59 -171 48 -49
108 -65 176 -50 89 21 131 90 89 149 -14 21 -14 22 5 22 26 0 30 45 5 54 -31
12 -121 6 -133 -8 -13 -15 -12 -17 42 -57 18 -14 27 -29 27 -49 0 -36 -23 -50
-83 -50 -34 0 -50 6 -71 26 -42 42 -56 114 -36 186 15 51 39 78 82 87 53 12
88 2 107 -30 11 -20 24 -29 42 -29 34 0 41 17 24 57 -24 58 -121 85 -204 59z"/>
<path d="M2606 814 c-9 -24 -7 -377 2 -392 7 -9 41 -12 138 -10 l129 3 0 25
c0 25 -1 25 -97 28 l-98 3 0 59 0 60 81 0 80 0 -3 28 c-3 27 -4 27 -80 30
l-78 3 0 59 0 59 98 3 c96 3 97 3 97 28 l0 25 -131 3 c-113 2 -132 0 -138 -14z"/>
<path d="M2240 774 c-6 -14 -10 -34 -10 -45 0 -12 -7 -19 -19 -19 -20 0 -31
-17 -24 -37 3 -7 11 -13 19 -13 11 0 14 -17 14 -77 0 -86 13 -144 35 -163 30
-25 145 -3 145 28 -1 26 -19 34 -50 23 -52 -17 -60 -3 -60 100 l0 88 48 3 c43
3 47 5 47 28 0 23 -4 25 -47 28 l-48 3 0 40 c0 32 -3 39 -20 39 -13 0 -24 -10
-30 -26z"/>
<path d="M3308 721 c-42 -9 -68 -27 -68 -48 0 -20 24 -26 65 -14 50 14 102 -7
111 -44 8 -32 1 -40 -24 -26 -32 17 -94 13 -129 -9 -37 -22 -53 -76 -35 -115
27 -58 116 -78 170 -38 29 22 30 22 35 3 4 -14 14 -20 32 -20 27 0 28 0 19 48
-4 26 -7 72 -6 102 0 30 -3 70 -9 87 -18 58 -85 88 -161 74z m66 -177 c9 -4
21 -15 27 -25 21 -39 -65 -81 -99 -47 -40 40 14 94 72 72z"/>
<path d="M3694 716 c-18 -8 -37 -22 -42 -33 -10 -16 -12 -16 -21 10 -8 21 -17
28 -34 25 -17 -2 -22 -9 -21 -30 0 -16 1 -84 2 -153 l2 -125 29 0 c37 0 41 12
41 116 0 47 5 94 11 105 16 31 57 43 85 24 22 -14 24 -22 26 -128 l3 -112 30
0 30 0 5 103 c5 98 6 105 33 128 30 26 44 29 67 14 11 -7 16 -37 20 -127 l5
-118 33 -3 32 -3 0 121 c0 137 -11 171 -60 189 -39 13 -79 5 -115 -23 l-29
-23 -20 23 c-27 29 -73 37 -112 20z"/>
<path d="M4266 719 c-16 -4 -39 -17 -51 -29 l-22 -20 -11 26 c-9 18 -19 24
-33 22 -21 -3 -21 -6 -20 -223 2 -235 6 -254 50 -240 19 6 21 13 21 101 l0 95
21 -20 c80 -74 199 11 199 142 0 105 -69 171 -154 146z m45 -59 c14 0 39 -57
39 -90 0 -79 -49 -127 -102 -99 -36 19 -47 40 -48 89 0 65 45 119 88 104 8 -2
18 -4 23 -4z"/>
<path d="M4767 716 c-51 -19 -63 -31 -83 -82 -21 -55 -14 -132 16 -174 11 -16
41 -36 66 -46 42 -16 52 -16 103 -3 46 12 57 18 59 38 6 36 -11 45 -48 26 -58
-30 -140 -1 -140 49 0 19 5 21 50 18 95 -7 140 20 140 86 0 49 -22 79 -68 92
-46 12 -48 12 -95 -4z m84 -56 c25 -14 24 -46 -1 -60 -26 -14 -102 -9 -107 7
-6 18 42 63 67 63 12 0 30 -5 41 -10z"/>
<path d="M5083 719 c-65 -13 -92 -58 -69 -114 12 -27 28 -41 73 -62 35 -17 59
-35 61 -47 7 -36 -47 -48 -97 -21 -25 12 -31 13 -41 0 -21 -25 -7 -49 38 -64
152 -48 239 115 94 177 -62 27 -79 46 -61 68 9 11 22 14 43 10 60 -12 70 -11
74 8 2 10 0 22 -6 28 -15 15 -74 25 -109 17z"/>
<path d="M1807 713 c-9 -8 -9 -256 -1 -278 17 -43 118 -35 112 9 -2 13 -11 22
-25 24 -22 3 -23 7 -23 112 0 60 -3 115 -6 124 -6 16 -45 22 -57 9z"/>
<path d="M2925 710 c-4 -7 14 -43 40 -81 28 -41 44 -73 39 -81 -4 -7 -25 -36
-46 -65 -41 -54 -42 -73 -4 -73 26 0 56 29 81 79 l17 33 32 -53 c27 -45 37
-55 64 -57 43 -4 42 15 -6 81 -21 29 -42 58 -46 65 -5 9 8 35 39 74 51 65 53
91 8 86 -22 -2 -35 -15 -58 -55 -16 -29 -32 -52 -35 -52 -3 0 -18 23 -35 52
-23 39 -36 53 -57 55 -14 2 -29 -2 -33 -8z"/>
</g>
</svg>
